<?xml version="1.0" encoding="UTF-8" standalone="no"?>
<!--

Created with Inkscape (http://www.inkscape.org/)

Copyright (C) 2012 Romain Ducher

This file is part of Reyn Tweets.

Reyn Tweets is free software: you can redistribute it and/or modify
it under the terms of the GNU Lesser General Public License as published by
the Free Software Foundation, either version 3 of the License, or
(at your option) any later version.

Reyn Tweets is distributed in the hope that it will be useful,
but WITHOUT ANY WARRANTY; without even the implied warranty of
MERCHANTABILITY or FITNESS FOR A PARTICULAR PURPOSE. See the
GNU Lesser General Public License for more details.

You should have received a copy of the GNU Lesser General Public License
along with Reyn Tweets.  If not, see <http://www.gnu.org/licenses/>.

-->

<svg
   xmlns:dc="http://purl.org/dc/elements/1.1/"
   xmlns:cc="http://creativecommons.org/ns#"
   xmlns:rdf="http://www.w3.org/1999/02/22-rdf-syntax-ns#"
   xmlns:svg="http://www.w3.org/2000/svg"
   xmlns="http://www.w3.org/2000/svg"
   xmlns:xlink="http://www.w3.org/1999/xlink"
   xmlns:sodipodi="http://sodipodi.sourceforge.net/DTD/sodipodi-0.dtd"
   xmlns:inkscape="http://www.inkscape.org/namespaces/inkscape"
   width="479.2424"
   height="2108.0828"
   id="svg2"
   version="1.1"
   inkscape:version="0.48.3.1 r9886"
   sodipodi:docname="stylo.svg">
  <defs
     id="defs4">
    <linearGradient
       id="linearGradient3916">
      <stop
         style="stop-color:#2a3060;stop-opacity:1"
         offset="0"
         id="stop3918" />
      <stop
         style="stop-color:#7e89ac;stop-opacity:1;"
         offset="1"
         id="stop3920" />
    </linearGradient>
    <linearGradient
       inkscape:collect="always"
       xlink:href="#linearGradient3916"
       id="linearGradient3934"
       gradientUnits="userSpaceOnUse"
       gradientTransform="translate(907.80596,61.606898)"
       spreadMethod="reflect"
       x1="-753.53693"
       y1="273.61145"
       x2="-603.33075"
       y2="273.61145" />
  </defs>
  <sodipodi:namedview
     id="base"
     pagecolor="#ffffff"
     bordercolor="#666666"
     borderopacity="1.0"
     inkscape:pageopacity="0.0"
     inkscape:pageshadow="2"
     inkscape:zoom="0.18150112"
     inkscape:cx="147.2389"
     inkscape:cy="1307.9605"
     inkscape:document-units="px"
     inkscape:current-layer="layer1"
     showgrid="false"
     inkscape:window-width="1280"
     inkscape:window-height="776"
     inkscape:window-x="0"
     inkscape:window-y="24"
     inkscape:window-maximized="1"
     showguides="true"
     inkscape:guide-bbox="true"
     fit-margin-top="0"
     fit-margin-left="0"
     fit-margin-right="0"
     fit-margin-bottom="0" />
  <metadata
     id="metadata7">
    <rdf:RDF>
      <cc:Work
         rdf:about="">
        <dc:format>image/svg+xml</dc:format>
        <dc:type
           rdf:resource="http://purl.org/dc/dcmitype/StillImage" />
        <dc:title />
      </cc:Work>
    </rdf:RDF>
  </metadata>
  <g
     inkscape:label="Calque 1"
     inkscape:groupmode="layer"
     id="layer1"
     transform="translate(30,895.72043)">
    <g
       id="g3924">
      <path
         inkscape:connector-curvature="0"
         id="path2985"
         d="m 5.1594238,-536.76611 0,1594.15631 2.15625,0 c -0.0561,1.6563 -0.0937,3.3301 -0.0937,5.0001 0,79.9932 64.8505102,144.8125 144.8437462,144.8125 79.99324,0 144.84375,-64.8193 144.84375,-144.8125 0,-1.67 -0.0377,-3.3438 -0.0937,-5.0001 l 2.5,0 0,-1594.15631 -294.1562462,0 z"
         style="fill:url(#linearGradient3934);fill-opacity:1;stroke:#000000;stroke-width:10.31884766;stroke-linecap:round;stroke-miterlimit:4.19999981;stroke-opacity:1;stroke-dasharray:none" />
      <g
         transform="translate(17.663149,-1592.4575)"
         id="g3877">
        <path
           style="fill:#e9be24;fill-opacity:1;stroke:#000000;stroke-width:10;stroke-linecap:round;stroke-miterlimit:4.19999981;stroke-opacity:1;stroke-dasharray:none"
           d="m 136.33685,701.78843 c -10.49582,0 -19,8.50418 -19,19 0,5.88811 2.6708,11.17035 6.875,14.65625 0,0 -22.81594,45.4079 -26.437499,70.125 -2.1511,14.68121 5.932139,29.8423 3.093749,44.40625 C 88.282148,914.5553 31.816774,980.52765 14.211851,1027.3197 l -11.8749999,31.5625 267.9999989,0.9375 -12.28125,-33.0312 c -17.20454,-46.27273 -72.53014,-112.60554 -84.71875,-176.81257 -2.63333,-13.8718 5.0377,-28.27376 3.03125,-42.25 -3.68713,-25.68329 -27.1875,-72.9375 -27.1875,-72.9375 3.78233,-3.47371 6.15625,-8.45976 6.15625,-14 0,-10.30531 -8.20514,-18.66758 -18.4375,-18.96875 -0.18917,-0.006 -0.42607,-0.16035 -0.5625,-0.0313 -1e-5,1e-5 0,5e-5 0,5e-5 z"
           id="path3771"
           inkscape:connector-curvature="0"
           sodipodi:nodetypes="cscaasccsaacscac" />
        <path
           sodipodi:type="arc"
           style="fill:#000000;fill-opacity:1;stroke:#000000;stroke-width:8.33007908;stroke-linecap:round;stroke-miterlimit:10;stroke-opacity:1;stroke-dasharray:none"
           id="path3825"
           sodipodi:cx="-115.5"
           sodipodi:cy="843.36218"
           sodipodi:rx="29.5"
           sodipodi:ry="31"
           d="m -86,843.36218 c 0,17.12083 -13.2076,31 -29.5,31 -16.2924,0 -29.5,-13.87917 -29.5,-31 0,-17.12082 13.2076,-31 29.5,-31 16.2924,0 29.5,13.87918 29.5,31 z"
           transform="matrix(0.59063825,0,0,0.60998649,204.55557,446.83245)" />
        <rect
           style="fill:#000000;fill-opacity:1;stroke:#000000;stroke-width:5;stroke-linecap:round;stroke-miterlimit:10;stroke-opacity:1;stroke-dasharray:none"
           id="rect3837"
           width="10"
           height="260.46512"
           x="131.33685"
           y="700.80688" />
      </g>
      <path
         inkscape:connector-curvature="0"
         id="rect3856"
         d="m 391.13682,265.28792 c -20.06145,0 -36.3125,16.25105 -36.3125,36.3125 0,9.78152 3.86857,18.65681 10.15625,25.1875 l 0,677.15628 c -10.16803,5.1687 -18.51281,13.3794 -23.8125,23.4688 l -336.8749954,0 0,0.5624 c -1.45058,-0.2579 -2.94405,-0.4062 -4.46874999,-0.4062 -13.99868961,0 -25.34374961,11.3763 -25.34374961,25.3749 0,13.9987 11.34506,25.3438 25.34374961,25.3438 1.52469999,0 3.01816999,-0.1483 4.46874999,-0.4063 l 0,0.5625 336.8749954,0 c 9.19137,17.4982 27.519,29.4375 48.65625,29.4375 30.34791,0 54.9375,-24.5896 54.9375,-54.9375 0,-21.3982 -12.24133,-39.925 -30.09375,-48.9999 l 0,-674.65628 c 7.83589,-6.66285 12.8125,-16.59593 12.8125,-27.6875 0,-20.06145 -16.2823,-36.3125 -36.34375,-36.3125 z"
         style="fill:#e9be24;fill-opacity:1;stroke:#000000;stroke-width:8.96114922;stroke-linecap:round;stroke-miterlimit:4;stroke-opacity:1;stroke-dasharray:none" />
    </g>
  </g>
</svg>
